@startuml
namespace reset_store {
    interface GenericStore  {
        + GetCreateStrategy() reset_store.RESTCreateStrategy
        + GetUpdateStrategy() reset_store.RESTUpdateStrategy
        + GetDeleteStrategy() reset_store.RESTDeleteStrategy

    }
    class Store << (S,Aquamarine) >> {
        + NewFunc <font color=blue>func</font>() reset_store.Object
        + NewListFunc <font color=blue>func</font>() reset_store.Object
        + DefaultQualifiedResource schema.GroupResource
        + SingularQualifiedResource schema.GroupResource
        + KeyRootFunc <font color=blue>func</font>(context.Context) string
        + KeyFunc <font color=blue>func</font>(context.Context, string) (string, error)
        + ObjectNameFunc <font color=blue>func</font>(reset_store.Object) (string, error)
        + TTLFunc <font color=blue>func</font>(reset_store.Object, uint64, bool) (uint64, error)
        + PredicateFunc <font color=blue>func</font>(labels.Selector, fields.Selector) storage.SelectionPredicate
        + EnableGarbageCollection bool
        + DeleteCollectionWorkers int
        + Decorator <font color=blue>func</font>(reset_store.Object) 
        + CreateStrategy reset_store.RESTCreateStrategy
        + BeginCreate BeginCreateFunc
        + AfterCreate AfterCreateFunc
        + UpdateStrategy reset_store.RESTUpdateStrategy
        + BeginUpdate BeginUpdateFunc
        + AfterUpdate AfterUpdateFunc
        + DeleteStrategy reset_store.RESTDeleteStrategy
        + AfterDelete AfterDeleteFunc
        + ReturnDeletedObject bool
        + ShouldDeleteDuringUpdate <font color=blue>func</font>(context.Context, string, reset_store.Object, reset_store.Object) bool
        + TableConvertor reset_store.TableConvertor
        + ResetFieldsStrategy reset_store.ResetFieldsStrategy
        + Storage DryRunnableStorage
        + StorageVersioner reset_store.GroupVersioner
        + DestroyFunc <font color=blue>func</font>() 

        - deleteWithoutFinalizers(ctx context.Context, name string, key string, obj reset_store.Object, preconditions *storage.Preconditions, options *v1.DeleteOptions) (reset_store.Object, bool, error)
        - qualifiedResourceFromContext(ctx context.Context) schema.GroupResource
        - updateForGracefulDeletionAndFinalizers(ctx context.Context, name string, key string, options *v1.DeleteOptions, preconditions storage.Preconditions, deleteValidation reset_store.ValidateObjectFunc, in reset_store.Object) (error, bool, bool, reset_store.Object, reset_store.Object)
        - finalizeDelete(ctx context.Context, obj reset_store.Object, runHooks bool, options *v1.DeleteOptions) (reset_store.Object, error)
        - calculateTTL(obj reset_store.Object, defaultTTL int64, update bool) (uint64, error)
        - startObservingCount(period time.Duration, objectCountTracker request.StorageObjectCountTracker) <font color=blue>func</font>() 

        + New() reset_store.Object
        + Destroy() 
        + NewList() reset_store.Object
        + NamespaceScoped() bool
        + GetCreateStrategy() reset_store.RESTCreateStrategy
        + GetUpdateStrategy() reset_store.RESTUpdateStrategy
        + GetDeleteStrategy() reset_store.RESTDeleteStrategy
        + List(ctx context.Context, options *internalversion.ListOptions) (reset_store.Object, error)
        + ListPredicate(ctx context.Context, p storage.SelectionPredicate, options *internalversion.ListOptions) (reset_store.Object, error)
        + Create(ctx context.Context, obj reset_store.Object, createValidation reset_store.ValidateObjectFunc, options *v1.CreateOptions) (reset_store.Object, error)
        + Update(ctx context.Context, name string, objInfo reset_store.UpdatedObjectInfo, createValidation reset_store.ValidateObjectFunc, updateValidation reset_store.ValidateObjectUpdateFunc, forceAllowCreate bool, options *v1.UpdateOptions) (reset_store.Object, bool, error)
        + Get(ctx context.Context, name string, options *v1.GetOptions) (reset_store.Object, error)
        + Delete(ctx context.Context, name string, deleteValidation reset_store.ValidateObjectFunc, options *v1.DeleteOptions) (reset_store.Object, bool, error)
        + DeleteReturnsDeletedObject() bool
        + DeleteCollection(ctx context.Context, deleteValidation reset_store.ValidateObjectFunc, options *v1.DeleteOptions, listOptions *internalversion.ListOptions) (reset_store.Object, error)
        + Watch(ctx context.Context, options *internalversion.ListOptions) (watch.Interface, error)
        + WatchPredicate(ctx context.Context, p storage.SelectionPredicate, resourceVersion string) (watch.Interface, error)
        + CompleteWithOptions(options *generic.StoreOptions) error
        + ConvertToTable(ctx context.Context, object reset_store.Object, tableOptions reset_store.Object) (*v1.Table, error)
        + StorageVersion() reset_store.GroupVersioner
        + GetResetFields() <font color=blue>map</font>[fieldpath.APIVersion]*fieldpath.Set
        + GetSingularName() string

    }
    class reset_store.AfterCreateFunc << (T, #FF7700) >>  {
    }
    class reset_store.AfterDeleteFunc << (T, #FF7700) >>  {
    }
    class reset_store.AfterUpdateFunc << (T, #FF7700) >>  {
    }
    class reset_store.BeginCreateFunc << (T, #FF7700) >>  {
    }
    class reset_store.BeginUpdateFunc << (T, #FF7700) >>  {
    }
    class reset_store.FinishFunc << (T, #FF7700) >>  {
    }
    class "<font color=blue>func</font>(context.Context, bool) " as fontcolorbluefuncfontcontextContextbool {
        'This class was created so that we can correctly have an alias pointing to this name. Since it contains dots that can break namespaces
    }
    class "<font color=blue>func</font>(context.Context, reset_store.Object, reset_store.Object, *v1.UpdateOptions) (FinishFunc, error)" as fontcolorbluefuncfontcontextContextruntimeObjectruntimeObjectv1UpdateOptionsFinishFuncerror {
        'This class was created so that we can correctly have an alias pointing to this name. Since it contains dots that can break namespaces
    }
    class "<font color=blue>func</font>(context.Context, reset_store.Object, *v1.CreateOptions) (FinishFunc, error)" as fontcolorbluefuncfontcontextContextruntimeObjectv1CreateOptionsFinishFuncerror {
        'This class was created so that we can correctly have an alias pointing to this name. Since it contains dots that can break namespaces
    }
    class "<font color=blue>func</font>(reset_store.Object, *v1.CreateOptions) " as fontcolorbluefuncfontruntimeObjectv1CreateOptions {
        'This class was created so that we can correctly have an alias pointing to this name. Since it contains dots that can break namespaces
    }
    class "<font color=blue>func</font>(reset_store.Object, *v1.DeleteOptions) " as fontcolorbluefuncfontruntimeObjectv1DeleteOptions {
        'This class was created so that we can correctly have an alias pointing to this name. Since it contains dots that can break namespaces
    }
    class "<font color=blue>func</font>(reset_store.Object, *v1.UpdateOptions) " as fontcolorbluefuncfontruntimeObjectv1UpdateOptions {
        'This class was created so that we can correctly have an alias pointing to this name. Since it contains dots that can break namespaces
    }
}

"reset_store.GenericStore" <|-- "reset_store.Store"
"reset_store.CollectionDeleter" <|-- "reset_store.Store"
"reset_store.Creater" <|-- "reset_store.Store"
"reset_store.CreaterUpdater" <|-- "reset_store.Store"
"reset_store.Getter" <|-- "reset_store.Store"
"reset_store.GracefulDeleter" <|-- "reset_store.Store"
"reset_store.Lister" <|-- "reset_store.Store"
"reset_store.MayReturnFullObjectDeleter" <|-- "reset_store.Store"
"reset_store.NamespaceScopedStrategy" <|-- "reset_store.Store"
"reset_store.ResetFieldsStrategy" <|-- "reset_store.Store"
"reset_store.Scoper" <|-- "reset_store.Store"
"reset_store.SingularNameProvider" <|-- "reset_store.Store"
"reset_store.StandardStorage" <|-- "reset_store.Store"
"reset_store.Storage" <|-- "reset_store.Store"
"reset_store.StorageVersionProvider" <|-- "reset_store.Store"
"reset_store.TableConvertor" <|-- "reset_store.Store"
"reset_store.Updater" <|-- "reset_store.Store"
"reset_store.Watcher" <|-- "reset_store.Store"

namespace reset_store {
    interface CategoriesProvider  {
        + Categories() []string

    }
    interface CollectionDeleter  {
        + DeleteCollection(ctx context.Context, deleteValidation ValidateObjectFunc, options *v1.DeleteOptions, listOptions *internalversion.ListOptions) (reset_store.Object, error)

    }
    interface Connecter  {
        + Connect(ctx context.Context, id string, options reset_store.Object, r Responder) (http.Handler, error)
        + NewConnectOptions() (reset_store.Object, bool, string)
        + ConnectMethods() []string

    }
    interface CreateUpdateResetFieldsStrategy  {
    }
    interface Creater  {
        + New() reset_store.Object
        + Create(ctx context.Context, obj reset_store.Object, createValidation ValidateObjectFunc, options *v1.CreateOptions) (reset_store.Object, error)

    }
    interface CreaterUpdater  {
        + Update(ctx context.Context, name string, objInfo UpdatedObjectInfo, createValidation ValidateObjectFunc, updateValidation ValidateObjectUpdateFunc, forceAllowCreate bool, options *v1.UpdateOptions) (reset_store.Object, bool, error)

    }
    interface GarbageCollectionDeleteStrategy  {
        + DefaultGarbageCollectionPolicy(ctx context.Context) GarbageCollectionPolicy

    }
    interface Getter  {
        + Get(ctx context.Context, name string, options *v1.GetOptions) (reset_store.Object, error)

    }
    interface GetterWithOptions  {
        + Get(ctx context.Context, name string, options reset_store.Object) (reset_store.Object, error)
        + NewGetOptions() (reset_store.Object, bool, string)

    }
    interface GracefulDeleter  {
        + Delete(ctx context.Context, name string, deleteValidation ValidateObjectFunc, options *v1.DeleteOptions) (reset_store.Object, bool, error)

    }
    interface GroupVersionAcceptor  {
        + AcceptsGroupVersion(gv schema.GroupVersion) bool

    }
    interface GroupVersionKindProvider  {
        + GroupVersionKind(containingGV schema.GroupVersion) schema.GroupVersionKind

    }
    interface KindProvider  {
        + Kind() string

    }
    interface Lister  {
        + NewList() reset_store.Object
        + List(ctx context.Context, options *internalversion.ListOptions) (reset_store.Object, error)

    }
    interface MayReturnFullObjectDeleter  {
        + DeleteReturnsDeletedObject() bool

    }
    interface NamedCreater  {
        + New() reset_store.Object
        + Create(ctx context.Context, name string, obj reset_store.Object, createValidation ValidateObjectFunc, options *v1.CreateOptions) (reset_store.Object, error)

    }
    interface NamespaceScopedStrategy  {
        + NamespaceScoped() bool

    }
    interface Patcher  {
    }
    interface RESTCreateStrategy  {
        + NamespaceScoped() bool
        + PrepareForCreate(ctx context.Context, obj reset_store.Object) 
        + Validate(ctx context.Context, obj reset_store.Object) field.ErrorList
        + WarningsOnCreate(ctx context.Context, obj reset_store.Object) []string
        + Canonicalize(obj reset_store.Object) 

    }
    interface RESTDeleteStrategy  {
    }
    interface RESTGracefulDeleteStrategy  {
        + CheckGracefulDelete(ctx context.Context, obj reset_store.Object, options *v1.DeleteOptions) bool

    }
    interface RESTUpdateStrategy  {
        + NamespaceScoped() bool
        + AllowCreateOnUpdate() bool
        + PrepareForUpdate(ctx context.Context, obj reset_store.Object, old reset_store.Object) 
        + ValidateUpdate(ctx context.Context, obj reset_store.Object, old reset_store.Object) field.ErrorList
        + WarningsOnUpdate(ctx context.Context, obj reset_store.Object, old reset_store.Object) []string
        + Canonicalize(obj reset_store.Object) 
        + AllowUnconditionalUpdate() bool

    }
    interface Redirector  {
        + ResourceLocation(ctx context.Context, id string) (*url.URL, http.RoundTripper, error)

    }
    interface ResetFieldsStrategy  {
        + GetResetFields() <font color=blue>map</font>[fieldpath.APIVersion]*fieldpath.Set

    }
    interface ResourceStreamer  {
        + InputStream(ctx context.Context, apiVersion string, acceptHeader string) (io.ReadCloser, bool, string, error)

    }
    interface Responder  {
        + Object(statusCode int, obj reset_store.Object) 
        + Error(err error) 

    }
    interface Scoper  {
        + NamespaceScoped() bool

    }
    interface ShortNamesProvider  {
        + ShortNames() []string

    }
    interface SingularNameProvider  {
        + GetSingularName() string

    }
    interface StandardStorage  {
        + Destroy() 

    }
    interface Storage  {
        + New() reset_store.Object
        + Destroy() 

    }
    interface StorageMetadata  {
        + ProducesMIMETypes(verb string) []string
        + ProducesObject(verb string) <font color=blue>interface</font>{}

    }
    interface StorageVersionProvider  {
        + StorageVersion() reset_store.GroupVersioner

    }
    interface TableConvertor  {
        + ConvertToTable(ctx context.Context, object reset_store.Object, tableOptions reset_store.Object) (*v1.Table, error)

    }
    interface UpdateResetFieldsStrategy  {
    }
    interface UpdatedObjectInfo  {
        + Preconditions() *v1.Preconditions
        + UpdatedObject(ctx context.Context, oldObj reset_store.Object) (reset_store.Object, error)

    }
    interface Updater  {
        + New() reset_store.Object
        + Update(ctx context.Context, name string, objInfo UpdatedObjectInfo, createValidation ValidateObjectFunc, updateValidation ValidateObjectUpdateFunc, forceAllowCreate bool, options *v1.UpdateOptions) (reset_store.Object, bool, error)

    }
    interface Watcher  {
        + Watch(ctx context.Context, options *internalversion.ListOptions) (watch.Interface, error)

    }
    class defaultUpdatedObjectInfo << (S,Aquamarine) >> {
        - obj reset_store.Object
        - transformers []TransformFunc

        + Preconditions() *v1.Preconditions
        + UpdatedObject(ctx context.Context, oldObj reset_store.Object) (reset_store.Object, error)

    }
    class reset_store.GarbageCollectionPolicy << (T, #FF7700) >>  {
    }
    class reset_store.TransformFunc << (T, #FF7700) >>  {
    }
    class reset_store.ValidateObjectFunc << (T, #FF7700) >>  {
    }
    class reset_store.ValidateObjectUpdateFunc << (T, #FF7700) >>  {
    }
    class wrappedUpdatedObjectInfo << (S,Aquamarine) >> {
        - objInfo UpdatedObjectInfo
        - transformers []TransformFunc

        + Preconditions() *v1.Preconditions
        + UpdatedObject(ctx context.Context, oldObj reset_store.Object) (reset_store.Object, error)

    }
    class "<font color=blue>func</font>(context.Context, reset_store.Object) error" as fontcolorbluefuncfontcontextContextruntimeObjecterror {
        'This class was created so that we can correctly have an alias pointing to this name. Since it contains dots that can break namespaces
    }
    class "<font color=blue>func</font>(context.Context, reset_store.Object, reset_store.Object) error" as fontcolorbluefuncfontcontextContextruntimeObjectruntimeObjecterror {
        'This class was created so that we can correctly have an alias pointing to this name. Since it contains dots that can break namespaces
    }
    class "<font color=blue>func</font>(context.Context, reset_store.Object, reset_store.Object) (reset_store.Object, error)" as fontcolorbluefuncfontcontextContextruntimeObjectruntimeObjectruntimeObjecterror {
        'This class was created so that we can correctly have an alias pointing to this name. Since it contains dots that can break namespaces
    }
}
"reset_store.RESTCreateUpdateStrategy" *-- "reset_store.CreateUpdateResetFieldsStrategy"
"reset_store.ResetFieldsStrategy" *-- "reset_store.CreateUpdateResetFieldsStrategy"
"reset_store.Creater" *-- "reset_store.CreaterUpdater"
"reset_store.TableConvertor" *-- "reset_store.Lister"
"reset_store.Getter" *-- "reset_store.Patcher"
"reset_store.Updater" *-- "reset_store.Patcher"
"reset_store.CollectionDeleter" *-- "reset_store.StandardStorage"
"reset_store.CreaterUpdater" *-- "reset_store.StandardStorage"
"reset_store.Getter" *-- "reset_store.StandardStorage"
"reset_store.GracefulDeleter" *-- "reset_store.StandardStorage"
"reset_store.Lister" *-- "reset_store.StandardStorage"
"reset_store.Watcher" *-- "reset_store.StandardStorage"
"reset_store.RESTUpdateStrategy" *-- "reset_store.UpdateResetFieldsStrategy"
"reset_store.ResetFieldsStrategy" *-- "reset_store.UpdateResetFieldsStrategy"

"reset_store.UpdatedObjectInfo" <|-- "reset_store.defaultUpdatedObjectInfo"
"reset_store.UpdatedObjectInfo" <|-- "reset_store.wrappedUpdatedObjectInfo"

namespace reset_store {
    interface CacheableObject  {
        + CacheEncode(id Identifier, encode <font color=blue>func</font>(Object, io.Writer) error, w io.Writer) error
        + GetObject() Object

    }
    interface ClientNegotiator  {
        + Encoder(contentType string, params <font color=blue>map</font>[string]string) (Encoder, error)
        + Decoder(contentType string, params <font color=blue>map</font>[string]string) (Decoder, error)
        + StreamDecoder(contentType string, params <font color=blue>map</font>[string]string) (Decoder, Serializer, Framer, error)

    }
    interface Decoder  {
        + Decode(data []byte, defaults *schema.GroupVersionKind, into Object) (Object, *schema.GroupVersionKind, error)

    }
    interface Encoder  {
        + Encode(obj Object, w io.Writer) error
        + Identifier() Identifier

    }
    interface EncoderWithAllocator  {
        + EncodeWithAllocator(obj Object, w io.Writer, memAlloc MemoryAllocator) error

    }
    interface EquivalentResourceMapper  {
        + EquivalentResourcesFor(resource schema.GroupVersionResource, subresource string) []schema.GroupVersionResource
        + KindFor(resource schema.GroupVersionResource, subresource string) schema.GroupVersionKind

    }
    interface EquivalentResourceRegistry  {
        + RegisterKindFor(resource schema.GroupVersionResource, subresource string, kind schema.GroupVersionKind) 

    }
    interface Framer  {
        + NewFrameReader(r io.ReadCloser) io.ReadCloser
        + NewFrameWriter(w io.Writer) io.Writer

    }
    interface GroupVersioner  {
        + KindForGroupVersionKinds(kinds []schema.GroupVersionKind) (schema.GroupVersionKind, bool)
        + Identifier() string

    }
    interface MemoryAllocator  {
        + Allocate(n uint64) []byte

    }
    interface Namer  {
        + Name(obj Object) (string, error)
        + Namespace(obj Object) (string, error)

    }
    interface NegotiatedSerializer  {
        + SupportedMediaTypes() []SerializerInfo
        + EncoderForVersion(serializer Encoder, gv GroupVersioner) Encoder
        + DecoderToVersion(serializer Decoder, gv GroupVersioner) Decoder

    }
    interface NestedObjectDecoder  {
        + DecodeNestedObjects(d Decoder) error

    }
    interface NestedObjectEncoder  {
        + EncodeNestedObjects(e Encoder) error

    }
    interface Object  {
        + GetObjectKind() schema.ObjectKind
        + DeepCopyObject() Object

    }
    interface ObjectConvertor  {
        + Convert(in <font color=blue>interface</font>{}, out <font color=blue>interface</font>{}, context <font color=blue>interface</font>{}) error
        + ConvertToVersion(in Object, gv GroupVersioner) (Object, error)
        + ConvertFieldLabel(gvk schema.GroupVersionKind, label string, value string) (string, string, error)

    }
    interface ObjectCreater  {
        + New(kind schema.GroupVersionKind) (Object, error)

    }
    interface ObjectDefaulter  {
        + Default(in Object) 

    }
    interface ObjectTyper  {
        + ObjectKinds( Object) ([]schema.GroupVersionKind, bool, error)
        + Recognizes(gvk schema.GroupVersionKind) bool

    }
    interface ObjectVersioner  {
        + ConvertToVersion(in Object, gv GroupVersioner) (Object, error)

    }
    interface ParameterCodec  {
        + DecodeParameters(parameters url.Values, from schema.GroupVersion, into Object) error
        + EncodeParameters(obj Object, to schema.GroupVersion) (url.Values, error)

    }
    interface ResourceVersioner  {
        + SetResourceVersion(obj Object, version string) error
        + ResourceVersion(obj Object) (string, error)

    }
    interface Serializer  {
    }
    class SerializerInfo << (S,Aquamarine) >> {
        + MediaType string
        + MediaTypeType string
        + MediaTypeSubType string
        + EncodesAsText bool
        + Serializer Serializer
        + PrettySerializer Serializer
        + StrictSerializer Serializer
        + StreamSerializer *StreamSerializerInfo

    }
    interface StorageSerializer  {
        + SupportedMediaTypes() []SerializerInfo
        + UniversalDeserializer() Decoder
        + EncoderForVersion(serializer Encoder, gv GroupVersioner) Encoder
        + DecoderToVersion(serializer Decoder, gv GroupVersioner) Decoder

    }
    class StreamSerializerInfo << (S,Aquamarine) >> {
        + EncodesAsText bool

    }
    interface Unstructured  {
        + NewEmptyInstance() Unstructured
        + UnstructuredContent() <font color=blue>map</font>[string]<font color=blue>interface</font>{}
        + SetUnstructuredContent( <font color=blue>map</font>[string]<font color=blue>interface</font>{}) 
        + IsList() bool
        + EachListItem( <font color=blue>func</font>(Object) error) error

    }
    class reset_store.Codec << (T, #FF7700) >>  {
    }
    class reset_store.Identifier << (T, #FF7700) >>  {
    }
}
"reset_store.Encoder" *-- "reset_store.EncoderWithAllocator"
"reset_store.EquivalentResourceMapper" *-- "reset_store.EquivalentResourceRegistry"
"reset_store.Decoder" *-- "reset_store.Serializer"
"reset_store.Encoder" *-- "reset_store.Serializer"
"reset_store.Framer" *-- "reset_store.StreamSerializerInfo"
"reset_store.Serializer" *-- "reset_store.StreamSerializerInfo"
"reset_store.Object" *-- "reset_store.Unstructured"


"__builtin__.string" #.. "reset_store.GarbageCollectionPolicy"
"__builtin__.string" #.. "reset_store.Identifier"
"reset_store.fontcolorbluefuncfontcontextContextbool" #.. "reset_store.FinishFunc"
"reset_store.fontcolorbluefuncfontcontextContextruntimeObjectv1CreateOptionsFinishFuncerror" #.. "reset_store.BeginCreateFunc"
"reset_store.fontcolorbluefuncfontcontextContextruntimeObjectruntimeObjectv1UpdateOptionsFinishFuncerror" #.. "reset_store.BeginUpdateFunc"
"reset_store.fontcolorbluefuncfontruntimeObjectv1CreateOptions" #.. "reset_store.AfterCreateFunc"
"reset_store.fontcolorbluefuncfontruntimeObjectv1DeleteOptions" #.. "reset_store.AfterDeleteFunc"
"reset_store.fontcolorbluefuncfontruntimeObjectv1UpdateOptions" #.. "reset_store.AfterUpdateFunc"
"reset_store.fontcolorbluefuncfontcontextContextruntimeObjecterror" #.. "reset_store.ValidateObjectFunc"
"reset_store.fontcolorbluefuncfontcontextContextruntimeObjectruntimeObjectruntimeObjecterror" #.. "reset_store.TransformFunc"
"reset_store.fontcolorbluefuncfontcontextContextruntimeObjectruntimeObjecterror" #.. "reset_store.ValidateObjectUpdateFunc"
"reset_store.Serializer" #.. "reset_store.Codec"
@enduml
